<svg width="40" height="40" viewBox="0 0 40 40" fill="none" xmlns="http://www.w3.org/2000/svg">
<path d="M0 20C0 8.9543 8.9543 0 20 0C31.0457 0 40 8.9543 40 20C40 31.0457 31.0457 40 20 40C8.9543 40 0 31.0457 0 20Z" fill="#EBEBEB" fill-opacity="0.7"/>
<path d="M15.248 8.00599L25.121 17.879C25.6834 18.4416 25.9994 19.2045 25.9994 20C25.9994 20.7955 25.6834 21.5584 25.121 22.121L15.254 31.988L13.84 30.574L23.707 20.707C23.8945 20.5195 23.9998 20.2652 23.9998 20C23.9998 19.7348 23.8945 19.4805 23.707 19.293L13.834 9.41999L15.248 8.00599Z" fill="#F66A15"/>
</svg>
